<?xml version="1.0" encoding="UTF-8" standalone="no"?>
<!DOCTYPE svg PUBLIC "-//W3C//DTD SVG 1.1//EN" "http://www.w3.org/Graphics/SVG/1.1/DTD/svg11.dtd">
<svg width="100%" height="100%" viewBox="0 0 761 592" version="1.1" xmlns="http://www.w3.org/2000/svg" xmlns:xlink="http://www.w3.org/1999/xlink" xml:space="preserve" xmlns:serif="http://www.serif.com/" style="fill-rule:evenodd;clip-rule:evenodd;stroke-linejoin:round;stroke-miterlimit:2;">
    <g transform="matrix(1,0,0,1,-855.239,0)">
        <g id="Page-2" serif:id="Page 2" transform="matrix(4.16667,0,0,4.16667,855.239,0)">
            <rect x="0" y="0" width="182.451" height="141.906" style="fill:none;"/>
            <g id="Layer-1" serif:id="Layer 1">
                <g transform="matrix(1,0,0,1,58.0725,46.7847)">
                    <path d="M0,-6.249L13.148,-6.249C12.555,-9.675 10.067,-11.84 6.574,-11.84C3.078,-11.84 0.652,-9.675 0,-6.249M23.511,-0.239L0.178,-0.239C1.125,3.068 3.908,4.992 8.053,4.992C11.193,4.992 13.265,4.091 15.455,2.167L21.379,8.418C18.299,11.905 13.797,13.707 7.699,13.707C-3.73,13.707 -11.132,6.553 -11.132,-3.183C-11.132,-12.982 -3.613,-19.956 6.515,-19.956C15.989,-19.956 23.687,-13.822 23.687,-3.064C23.687,-2.223 23.569,-1.14 23.511,-0.239" style="fill:white;fill-rule:nonzero;"/>
                </g>
                <g transform="matrix(1,0,0,1,85.2877,46.3407)">
                    <path d="M0,-18.97L11.251,-18.97L11.197,15.748L0,4.469L0,-18.97ZM-1.243,-28.647C-1.243,-32.074 1.482,-34.718 5.625,-34.718C9.77,-34.718 12.494,-32.256 12.494,-28.828C12.494,-25.221 9.77,-22.576 5.625,-22.576C1.482,-22.576 -1.243,-25.221 -1.243,-28.647" style="fill:white;fill-rule:nonzero;"/>
                </g>
                <g transform="matrix(1,0,0,1,125.288,56.4668)">
                    <path d="M0,-13.948C0,-17.915 -2.961,-20.56 -6.987,-20.56C-11.015,-20.56 -14.034,-17.915 -14.034,-13.948C-14.034,-9.979 -11.015,-7.276 -6.987,-7.276C-2.961,-7.276 0,-9.979 0,-13.948M11.132,-29.097L11.132,-2.466C11.132,9.856 4.264,15.688 -7.699,15.688C-13.856,15.688 -19.72,14.244 -23.626,11.417L-19.542,3.425C-16.878,5.587 -12.494,6.912 -8.705,6.912C-2.664,6.912 -0.119,4.148 -0.119,-0.964L-0.119,-2.045C-2.309,0.539 -5.566,1.8 -9.652,1.8C-18.179,1.8 -25.405,-4.329 -25.405,-13.948C-25.405,-23.506 -18.179,-29.636 -9.652,-29.636C-5.212,-29.636 -1.777,-28.194 0.415,-25.128L0.415,-29.097L11.132,-29.097Z" style="fill:white;fill-rule:nonzero;"/>
                </g>
                <g transform="matrix(1,0,0,1,174.848,45.4656)">
                    <path d="M0,-4.149L0,14.487L-11.251,14.487L-11.251,-2.284C-11.251,-6.974 -13.265,-8.956 -16.522,-8.956C-20.133,-8.956 -22.918,-6.674 -22.918,-1.263L-22.918,14.487L-34.169,14.487L-34.169,-18.095L-23.45,-18.095L-23.45,-14.547C-20.904,-17.253 -17.291,-18.636 -13.265,-18.636C-5.744,-18.636 0,-14.248 0,-4.149" style="fill:white;fill-rule:nonzero;"/>
                </g>
                <g transform="matrix(1,0,0,1,44.2505,82.3759)">
                    <path d="M0,8.175L-5.329,-5.289L-10.658,8.175L0,8.175ZM3.435,16.951L-14.093,16.951L-17.352,25.126L-29.311,25.126L-11.015,-16.951L0.534,-16.951L18.892,25.126L6.693,25.126L3.435,16.951Z" style="fill:white;fill-rule:nonzero;"/>
                </g>
                <g transform="matrix(1,0,0,1,85.3564,78.1485)">
                    <path d="M0,13.003C0,8.074 -2.902,5.31 -6.693,5.31C-10.541,5.31 -13.443,8.074 -13.443,13.003C-13.443,17.993 -10.541,20.818 -6.693,20.818C-2.902,20.818 0,17.993 0,13.003M11.019,-5.612L11.075,29.353L0.354,29.353L0.354,26.109C-1.777,28.693 -4.916,29.894 -9.061,29.894C-17.825,29.894 -24.873,23.401 -24.873,13.003C-24.873,2.665 -17.825,-3.768 -9.061,-3.768C-5.329,-3.768 -2.312,-2.687 -0.178,-0.403L-0.178,-16.891L11.019,-5.612Z" style="fill:white;fill-rule:nonzero;"/>
                </g>
                <g transform="matrix(1,0,0,1,98.9317,78.0138)">
                    <path d="M0,26.932L3.374,19.118C6.335,20.98 10.658,22.123 14.566,22.123C18.355,22.123 19.6,21.282 19.6,19.897C19.6,15.509 0.652,20.501 0.652,7.458C0.652,1.324 6.218,-3.366 16.285,-3.366C20.784,-3.366 25.759,-2.404 28.957,-0.6L25.583,7.156C22.383,5.354 19.185,4.752 16.344,4.752C12.553,4.752 11.191,5.834 11.191,7.034C11.191,11.542 30.082,6.674 30.082,19.597C30.082,25.61 24.634,30.298 14.212,30.298C8.764,30.298 3.139,28.917 0,26.932" style="fill:white;fill-rule:nonzero;"/>
                </g>
                <g transform="matrix(1,0,0,1,36.8464,31.0964)">
                    <path d="M0,15.631C5.151,13.106 8.112,8.537 8.112,2.345C8.112,-7.272 1.006,-13.223 -10.304,-13.223L-29.244,-13.223L-17.528,5.996L-17.528,-3.845L-11.015,-3.845C-6.159,-3.845 -3.73,-1.561 -3.73,2.345C-3.73,6.195 -6.159,8.477 -11.015,8.477L-16.015,8.477L-3.594,28.854L8.942,28.854L0,15.631Z" style="fill:white;fill-rule:nonzero;"/>
                </g>
                <g transform="matrix(1,0,0,1,29.7953,12.2248)">
                    <path d="M0,-7.787L0,-7.097C0,-5.333 -1.419,-3.891 -3.156,-3.891C-4.891,-3.891 -6.31,-5.333 -6.31,-7.097L-6.31,-7.787L-10.518,-7.787L-10.518,-7.097C-10.518,-5.333 -11.937,-3.891 -13.672,-3.891C-15.409,-3.891 -16.828,-5.333 -16.828,-7.097L-16.828,-7.787L-22.192,-7.787L-22.192,0L4.719,0L4.719,-7.787L0,-7.787Z" style="fill:rgb(236,181,11);fill-rule:nonzero;"/>
                </g>
                <text x="7.602px" y="132.641px" style="font-family:'Montserrat-Medium', 'Montserrat';font-weight:500;font-size:10.448px;fill:white;">OU<tspan x="24.507px " y="132.641px ">T</tspan>DOOR | BRANDING | P<tspan x="149.4px " y="132.641px ">R</tspan>INT</text>
            </g>
        </g>
    </g>
</svg>
